<?xml version="1.0" encoding="UTF-8"?>
<svg id="Layer_1" data-name="Layer 1" xmlns="http://www.w3.org/2000/svg" viewBox="0 0 425.2 425.2">
  <defs>
    <style>
      .cls-1 {
        fill: #00678f;
      }

      .cls-1, .cls-2, .cls-3, .cls-4 {
        stroke-width: 0px;
      }

      .cls-2 {
        fill: #ed1c24;
      }

      .cls-3 {
        fill: #fff;
      }

      .cls-4 {
        fill: #ffcb05;
      }
    </style>
  </defs>
  <rect class="cls-3" x="0" y="0" width="425.2" height="425.2"/>
  <rect class="cls-4" x="20.77" y="20.71" width="383.8" height="383.8"/>
  <path class="cls-1" d="m392.4,211.47c0,40.95-80.5,74.13-179.8,74.13-99.3,0-179.8-33.18-179.8-74.13,0-40.95,80.5-74.13,179.8-74.13s179.8,33.18,179.8,74.13"/>
  <polygon class="cls-3" points="97.29 248.07 115.87 173.92 145.59 173.92 145.59 217.11 165.1 173.92 195.78 173.92 177.2 248.07 157.66 248.07 168.8 200.22 145.59 248.07 129.82 248.07 129.82 200.22 117.72 248.07 97.29 248.07"/>
  <polygon class="cls-2" points="201.91 249.01 204.72 238.68 226.08 238.68 223.27 249.01 201.91 249.01"/>
  <polygon class="cls-3" points="249.84 248.07 268.42 173.92 289.78 173.92 299.09 213.35 309.31 173.92 328.82 173.92 310.24 248.07 289.78 248.07 279.56 207.71 269.34 248.07 249.84 248.07"/>
  <polygon class="cls-4" points="201.91 173.93 197.28 192.71 216.79 192.71 206.26 233.41 227.62 233.41 238.18 192.71 257.66 192.71 262.31 173.93 201.91 173.93"/>
</svg>